<svg width="512" height="512" viewBox="0 0 512 512" fill="none" xmlns="http://www.w3.org/2000/svg">
<rect width="512" height="512" rx="48" fill="#121212"/>
<path d="M60.7 286.8V252.3C66.3 248.5 71.6 245.8 76.6 244.2C81.6 242.6 86.3 241.8 90.7 241.8C96.7 241.8 102.4 242.9 107.8 245.1C113.2 247.1 118.5 249.5 123.7 252.3C128.9 254.9 134.1 257.3 139.3 259.5C144.7 261.5 150.3 262.5 156.1 262.5C160.5 262.5 165.2 261.7 170.2 260.1C175.2 258.5 180.5 255.9 186.1 252.3V286.8C180.5 290.4 175.2 293 170.2 294.6C165.2 296.2 160.5 297 156.1 297C150.1 297 144.3 296 138.7 294C133.3 292 128 289.6 122.8 286.8C117.6 284 112.3 281.6 106.9 279.6C101.7 277.6 96.3 276.6 90.7 276.6C86.3 276.6 81.6 277.4 76.6 279C71.6 280.6 66.3 283.2 60.7 286.8ZM209.852 366L277.652 162H324.152L256.352 366H209.852ZM372.698 258H326.798C328.398 245.8 332.398 235.4 338.798 226.8C345.398 218 353.998 211.3 364.598 206.7C375.198 201.9 387.298 199.5 400.898 199.5C416.298 199.5 429.198 202.3 439.598 207.9C449.998 213.5 457.798 221.1 462.998 230.7C468.398 240.3 471.098 251.4 471.098 264V325.8C471.098 336.4 471.498 344.7 472.298 350.7C473.298 356.7 474.398 361.8 475.598 366H428.198C426.998 361.8 426.198 356.7 425.798 350.7C425.398 344.7 425.198 338.3 425.198 331.5V263.7C425.198 254.7 422.998 248 418.598 243.6C414.198 239 407.598 236.7 398.798 236.7C390.998 236.7 384.898 238.7 380.498 242.7C376.298 246.5 373.698 251.6 372.698 258ZM430.898 267.3V294C418.098 294 407.498 294.7 399.098 296.1C390.898 297.3 384.398 299.2 379.598 301.8C374.998 304.2 371.698 307.1 369.698 310.5C367.898 313.7 366.998 317.3 366.998 321.3C366.998 326.7 368.898 331 372.698 334.2C376.698 337.4 381.998 339 388.598 339C395.398 339 401.498 337.4 406.898 334.2C412.498 330.8 416.898 326.1 420.098 320.1C423.498 314.1 425.198 307.5 425.198 300.3H439.898C439.098 313.1 436.698 324 432.698 333C428.898 341.8 423.898 349 417.698 354.6C411.698 360.2 404.898 364.3 397.298 366.9C389.898 369.5 382.298 370.8 374.498 370.8C364.298 370.8 355.098 369.1 346.898 365.7C338.898 362.3 332.598 357.1 327.998 350.1C323.398 343.1 321.098 334.5 321.098 324.3C321.098 313.3 324.198 303.7 330.398 295.5C336.798 287.3 346.398 281 359.198 276.6C370.398 272.8 381.698 270.3 393.098 269.1C404.498 267.9 417.098 267.3 430.898 267.3Z" fill="#D9D9D9"/>
</svg>
