<svg width="512" height="512" viewBox="0 0 512 512" fill="none" xmlns="http://www.w3.org/2000/svg">
<g clip-path="url(#clip0_590_2)">
<rect width="512" height="512" rx="128" fill="#121212"/>
<path d="M365.2 333.2L362.8 348.8C357.733 352.8 351.2 356.133 343.2 358.8C335.2 361.467 326.667 362.8 317.6 362.8C307.467 362.8 299.467 360.267 293.6 355.2C288 350.133 284.267 343.067 282.4 334C277.6 339.6 271.733 344.533 264.8 348.8C258.133 353.067 251.067 356.4 243.6 358.8C236.133 361.467 228.667 362.8 221.2 362.8C208.933 362.8 198.267 360.8 189.2 356.8C180.133 352.533 173.2 346.667 168.4 339.2C163.6 331.467 161.2 322.267 161.2 311.6C161.2 292.933 167.467 278.8 180 269.2C192.8 259.333 210.8 254.4 234 254.4C240.933 254.4 248.133 254.933 255.6 256C263.067 257.067 269.733 258.667 275.6 260.8V236.8C275.6 223.467 274.133 213.067 271.2 205.6C268.267 197.867 262.933 192.267 255.2 188.8C247.733 185.067 237.067 182.933 223.2 182.4L200 235.2H184.8C183.2 226.667 181.067 218 178.4 209.2C176 200.4 173.067 192.267 169.6 184.8L170 181.2C176.933 176.933 185.333 173.067 195.2 169.6C205.333 166.133 215.867 163.333 226.8 161.2C238 159.067 248.8 158 259.2 158C284.8 158 303.733 164.4 316 177.2C328.267 189.733 334.4 206.667 334.4 228V305.2C334.4 316.667 335.467 324.667 337.6 329.2C340 333.733 344.4 336 350.8 336C352.933 336 355.2 335.867 357.6 335.6C360 335.067 362.533 334.267 365.2 333.2ZM214.8 300.4C214.8 309.467 217.067 316.667 221.6 322C226.4 327.333 233.333 330 242.4 330C248 330 253.6 328.933 259.2 326.8C264.8 324.4 270.267 321.333 275.6 317.6V280C270.8 277.867 265.733 276.533 260.4 276C255.333 275.2 250.4 274.8 245.6 274.8C237.067 274.8 229.733 276.8 223.6 280.8C217.733 284.8 214.8 291.333 214.8 300.4Z" fill="#F2F2F2"/>
</g>
<defs>
<clipPath id="clip0_590_2">
<rect width="512" height="512" rx="128" fill="white"/>
</clipPath>
</defs>
</svg>
